<?xml version="1.0" encoding="UTF-8" standalone="no"?>
<svg width="112" height="112" viewBox="0 0 112 112" fill="none" id="svg-1611045613_2593">
    <g opacity="0.1">
        <rect width="112" height="112" rx="34.4615" fill="#D9D9D9"
            style="fill:#D9D9D9;fill:color(display-p3 0.8510 0.8510 0.8510);fill-opacity:1;"></rect>
        <rect width="112" height="112" rx="34.4615"
            fill="url(#svg-1611045613_2593_paint0_radial_752_20215)" style=""></rect>
    </g>
    <path fill-rule="evenodd" clip-rule="evenodd"
        d="M74.6834 74.0731C70.422 80.7013 64.0405 85.2954 56.0976 85.2954C48.1545 85.2954 41.7748 80.7009 37.5153 74.0725C33.2716 67.4686 30.9512 58.6335 30.9512 49.3161C30.9512 41.7153 34.2202 35.9325 39.1006 32.1227C43.8971 28.3785 50.1183 26.627 56.0976 26.627C62.0769 26.627 68.2997 28.3785 73.0979 32.1223C77.9801 35.9317 81.2518 41.7145 81.2518 49.3161C81.2518 58.634 78.9292 67.4693 74.6834 74.0731ZM56.0976 82.2954C69.3917 82.2954 78.2518 67.0359 78.2518 49.3161C78.2518 36.0254 66.9716 29.627 56.0976 29.627C45.2236 29.627 33.9512 36.0254 33.9512 49.3161C33.9512 67.0359 42.8036 82.2954 56.0976 82.2954Z"
        fill="url(#svg-1611045613_2593_paint1_radial_752_20215)" style=""></path>
    <rect x="20.541" y="51.1631" width="70.9231" height="5" rx="2.5" fill="#606DFF" stroke="#EAF2FC"
        style="fill:#606DFF;fill:color(display-p3 0.3765 0.4275 1.0000);fill-opacity:1;stroke:#EAF2FC;stroke:color(display-p3 0.9176 0.9490 0.9882);stroke-opacity:1;"
        stroke-width="2"></rect>
    <defs>
        <radialGradient id="svg-1611045613_2593_paint0_radial_752_20215" cx="0" cy="0" r="1"
            gradientUnits="userSpaceOnUse"
            gradientTransform="translate(44.3839 83.2727) rotate(-57.0335) scale(107.055 111.919)">
            <stop offset="0.0989583" stop-color="#098DC6"
                style="stop-color:#098DC6;stop-color:color(display-p3 0.0335 0.5529 0.7755);stop-opacity:1;"></stop>
            <stop offset="0.709435" stop-color="#5570FF"
                style="stop-color:#5570FF;stop-color:color(display-p3 0.3333 0.4400 1.0000);stop-opacity:1;"></stop>
            <stop offset="0.924521" stop-color="#8497F9"
                style="stop-color:#8497F9;stop-color:color(display-p3 0.5185 0.5914 0.9746);stop-opacity:1;"></stop>
        </radialGradient>
        <radialGradient id="svg-1611045613_2593_paint1_radial_752_20215" cx="0" cy="0" r="1"
            gradientUnits="userSpaceOnUse"
            gradientTransform="translate(58.5 82) rotate(-73.8585) scale(57.7268 55.5748)">
            <stop offset="0.0989583" stop-color="#657EFF"
                style="stop-color:#657EFF;stop-color:color(display-p3 0.3964 0.4930 1.0000);stop-opacity:1;"></stop>
            <stop offset="0.709435" stop-color="#5855FF"
                style="stop-color:#5855FF;stop-color:color(display-p3 0.3467 0.3333 1.0000);stop-opacity:1;"></stop>
            <stop offset="0.924521" stop-color="#A3B2FF"
                style="stop-color:#A3B2FF;stop-color:color(display-p3 0.6385 0.6964 1.0000);stop-opacity:1;"></stop>
        </radialGradient>
    </defs>
</svg>